<svg xmlns="http://www.w3.org/2000/svg" width="1440" height="900" viewBox="0 0 1440 900">
    <g fill="none" fill-rule="evenodd">
        <path fill="#3B5CAD" fill-rule="nonzero" d="M0 0V900h1440V0z"/>
        <path d="M345.024 629C312.991 629 287 654.943 287 686.976S312.943 745 344.976 745 403 719.057 403 687.024v-.048c-.048-31.985-25.99-57.928-57.976-57.976zM1377.407 165.155c-10.184 26.74-35.884 44.455-64.562 44.455-1.201 0-2.354-.048-3.555-.096a275.118 275.118 0 0 0-10.184 9.65c-85.603 85.452-101.792 218.289-39.199 321.793a115.17 115.17 0 0 1 23.635-2.448c63.505 0 115.05 51.368 115.194 114.833C1412.186 658 1425.973 661.6 1440 664V146a262.915 262.915 0 0 0-57.357 16.803c-1.681.816-3.459 1.584-5.236 2.352zM125.796 408.127c48.35-20.476 86.857-58.934 107.36-107.223a202.024 202.024 0 0 0 0-156.856C201.61 69.433 128.388 20.952 47.245 21 31.306 21 15.46 22.822 0 26.563v391.874A203.614 203.614 0 0 0 47.246 424c26.983 0 53.727-5.37 78.55-15.873z"/>
        <path d="M1398.72 655.824c-1.2 62.544-52.272 112.896-115.104 112.896-63.6 0-115.104-51.552-115.104-115.104 0-54.624 38.016-100.32 89.04-112.176-62.688-104.352-46.224-237.984 39.936-324 2.784-2.784 5.664-5.52 8.544-8.208-37.872-3.792-65.52-37.584-61.728-75.504 3.792-37.92 37.584-65.52 75.504-61.728 37.872 3.792 65.52 37.584 61.728 75.504-.48 4.944-1.536 9.792-3.072 14.496l3.312-1.44A261.468 261.468 0 0 1 1440 143.52V0h-222.816a151.118 151.118 0 0 1 8.352 49.488c0 83.232-67.488 150.768-150.768 150.768S924 132.768 924 49.488c0-16.848 2.784-33.6 8.304-49.488H0v24.144c15.504-3.648 31.344-5.52 47.232-5.472 82.032.048 156.096 49.104 188.064 124.656a204.55 204.55 0 0 1 0 158.88c-31.92 75.552-105.984 124.704-188.064 124.608-15.888 0-31.776-1.824-47.232-5.472v163.968c12.192-2.736 24.624-4.08 37.104-4.08 93.84 0 169.872 76.032 169.872 169.872 0 64.128-35.52 119.952-87.984 148.896H1440V666.384a255.273 255.273 0 0 1-41.28-10.56zm-1288.08-82.08c-35.808 0-64.896-29.04-64.896-64.896S74.784 444 110.64 444s64.896 29.04 64.896 64.896c-.048 35.808-29.088 64.848-64.896 64.848zm234 174.096c-33.408 0-60.48-27.072-60.48-60.432 0-33.408 27.072-60.48 60.432-60.48s60.432 27.024 60.48 60.432c0 33.36-27.072 60.432-60.432 60.48z"/>
        <path fill="#FFF" fill-rule="nonzero" d="M1378.11 161.822c-.338 1.076-.724 2.102-1.11 3.178a257.327 257.327 0 0 1 5.359-2.396c18.49-7.92 37.848-13.688 57.641-17.11V143a260.478 260.478 0 0 0-58.559 17.356l-3.33 1.466zM1399.048 653.333c0 .762 0 1.477-.048 2.19 13.349 4.62 27.08 8.096 41 10.477v-2.429c-13.92-2.38-27.651-5.952-40.952-10.571v.333zM1243.24 506.797c-41.887-98.482-19.473-212.41 56.541-287.915A275.578 275.578 0 0 1 1310 209.24a77.475 77.475 0 0 1-3.326-.24 196.874 196.874 0 0 0-8.58 8.203C1211.62 303.165 1195.04 436.713 1257.99 541c.82-.192 1.64-.384 2.459-.528a267.13 267.13 0 0 1-17.208-33.675z"/>
        <path fill="#294D96" fill-rule="nonzero" d="M1382.936 646.798A251.294 251.294 0 0 0 1399 653c-.144-63.558-51.752-115-115.336-115-7.936 0-15.872.817-23.664 2.452a264.757 264.757 0 0 0 122.936 106.346z"/>
        <path fill="#294D96" fill-rule="nonzero" d="M1297.86 593.01a263.561 263.561 0 0 1-39.9-51.01c-50.978 11.793-88.96 57.481-88.96 112.038C1169 717.559 1220.505 769 1284 769c62.775 0 113.801-50.29 115-112.757a267.374 267.374 0 0 1-16.929-6.472 263.082 263.082 0 0 1-84.212-56.762z"/>
        <path fill="#294D96" fill-rule="nonzero" d="M1398.952 653.502a249.99 249.99 0 0 1-16.007-6.197A263.63 263.63 0 0 1 1260.445 541c-.815.192-1.63.336-2.445.528 28.948 48.181 72.37 85.986 124.034 107.987a266.775 266.775 0 0 0 16.918 6.485c0-.72.048-1.49.048-2.21-.048-.096-.048-.192-.048-.288z"/>
        <path fill="#00A7CE" fill-rule="nonzero" d="M207 750.996C207 657.087 130.911 581 37.108 581c-12.481 0-24.915 1.345-37.108 4.083V900h119.006C171.476 871.083 207 815.218 207 750.996z"/>
        <path fill="#FFF" fill-rule="nonzero" d="M126.519 411.019c48.853-20.731 87.734-59.65 108.444-108.599a204.684 204.684 0 0 0 0-158.842C203.13 68.044 129.156 18.952 47.175 19 31.306 19 15.437 20.824 0 24.47v2.448a202.877 202.877 0 0 1 47.175-5.567c80.974.096 154.037 48.565 185.631 123.187a202.588 202.588 0 0 1 0 156.97c-31.498 74.67-104.61 123.235-185.631 123.14-15.917 0-31.738-1.824-47.175-5.567v2.447c15.485 3.647 31.306 5.519 47.175 5.472 27.279.095 54.27-5.328 79.344-15.981zM344.524 627C311.092 627 284 654.092 284 687.476 284 720.908 311.092 748 344.476 748S405 720.908 405 687.524v-.048c-.048-33.384-27.092-60.428-60.476-60.476zm0 118.598c-32.087 0-58.122-25.987-58.122-58.074s25.987-58.122 58.074-58.122 58.074 25.987 58.122 58.074c0 32.087-25.987 58.074-58.074 58.122z"/>
        <path fill="#00A7CE" fill-rule="nonzero" d="M1312.549 209c28.629 0 54.237-17.486 64.451-44a261.404 261.404 0 0 0-68 43.905c1.15.095 2.35.095 3.549.095z"/>
        <path fill="#00A7CE" fill-rule="nonzero" d="M1382 140.192c0-38.205-30.864-69.192-68.976-69.192-38.112 0-69.024 30.94-69.024 69.144 0 35.559 26.88 65.343 62.16 68.856a263.915 263.915 0 0 1 72.432-47.347 69.203 69.203 0 0 0 3.408-21.46z"/>
        <path fill="#00A7CE" fill-rule="nonzero" d="M1376.903 165.089A58.86 58.86 0 0 0 1378 162c-26.433 11.548-50.767 27.326-72 46.762a76.63 76.63 0 0 0 3.292.238c20.088-18.059 42.943-32.838 67.61-43.911z"/>
        <path fill="#294D96" fill-rule="nonzero" d="M1074.452 200C1157.562 200 1225 132.598 1225 49.425c0-16.827-2.78-33.557-8.292-49.425H932.292c-5.511 15.916-8.34 32.598-8.292 49.425C923.905 132.598 991.294 200 1074.452 200z"/>
        <circle cx="111" cy="509" r="65" fill="#294D96" fill-rule="nonzero"/>
    </g>
</svg>
